PathFileType	4	(X/Y/Z)	./resultDataOpenSim/trcMotMarkerGrf/sub10/qtm-15-03.trc
DataRate	CameraRate	NumFrames	NumMarkers	Units	OrigDataRate	OrigDataStartFrame	OrigNumFrames
250.000000	250.000000	14	24	m	250.000000	244	487
Frame#	Time	L.Toe.Tip			R.Toe.Tip			L.Ankle.Lat			R.Ankle.Lat			L.Ankle.Med			R.Ankle.Med			L.Heel			R.Heel			L.Knee.Lat			R.Knee.Lat			L.Knee.Med			R.Knee.Med			L.Thigh.Upper			R.Thigh.Upper			L.ASIS			R.ASIS			V.Sacral			L.Acromium			R.Acromium			C7			L.Elbow			R.Elbow			L.Wrist.Lat			R.Wrist.Lat
		X1	Y1	Z1	X2	Y2	Z2	X3	Y3	Z3	X4	Y4	Z4	X5	Y5	Z5	X6	Y6	Z6	X7	Y7	Z7	X8	Y8	Z8	X9	Y9	Z9	X10	Y10	Z10	X11	Y11	Z11	X12	Y12	Z12	X13	Y13	Z13	X14	Y14	Z14	X15	Y15	Z15	X16	Y16	Z16	X17	Y17	Z17	X18	Y18	Z18	X19	Y19	Z19	X20	Y20	Z20	X21	Y21	Z21	X22	Y22	Z22	X23	Y23	Z23	X24	Y24	Z24

244	0.972	-0.01509555	-0.056215364	-0.075161893	0.57213438	0.098818569	0.0025288621	-0.12431196	-0.013666875	-0.15366292	0.43059492	0.10786026	0.025508964	-0.13070831	0.022664981	-0.075879318	0.45838531	0.13806917	-0.055719472	-0.2019265	-0.023464918	-0.12888785	0.38854559	0.079180231	-0.027763704	0.026331718	0.34286896	-0.20036911	0.42868187	0.50220802	0.047928159	0.010562444	0.33499962	-0.079714137	0.44775106	0.52718858	-0.077256175	0.10725978	0.72793562	-0.28205881	0.13536756	0.76656711	0.10136833	0.18448889	0.82836731	-0.2189498	0.20151682	0.84831436	0.023069943	-0.0019271004	0.87422771	-0.088071033	0.2558355	1.3146486	-0.23393734	0.16825298	1.3401654	0.047917128	0.1375463	1.3481626	-0.11870339	0.32503382	1.0410417	-0.43982887	-0.038305493	1.1437321	0.23477757	0.57868538	1.0283848	-0.43956409	-0.069696178	1.1749169	0.48342065
245	0.976	-0.014846623	-0.056248725	-0.075101548	0.59185216	0.09762018	-0.0029880494	-0.12361837	-0.01178333	-0.15334719	0.45001428	0.1051033	0.02188708	-0.12900389	0.024437304	-0.075681295	0.47665994	0.13644241	-0.059262874	-0.20119163	-0.020508446	-0.12795341	0.40800482	0.076581972	-0.031361174	0.027827473	0.34430361	-0.20094392	0.43558133	0.4998673	0.046190073	0.013671523	0.33576538	-0.080045454	0.45358397	0.52483376	-0.078854842	0.11118403	0.72853044	-0.28154772	0.14504971	0.76758712	0.10088216	0.18973513	0.82925488	-0.22082673	0.21025802	0.84890857	0.021645917	0.0056681199	0.87486897	-0.085990546	0.26330681	1.3161033	-0.23348555	0.17479877	1.3414381	0.047162371	0.14496976	1.3491372	-0.11912493	0.33582599	1.0446024	-0.44044329	-0.034900179	1.1482391	0.23400969	0.58955059	1.0351632	-0.43738184	-0.068082494	1.183756	0.48188692
246	0.98	-0.01457819	-0.056261389	-0.07510706	0.61114264	0.096441662	-0.0085446874	-0.12283181	-0.0098090336	-0.15297479	0.46891678	0.10264056	0.018262942	-0.12719902	0.026329259	-0.075244874	0.49453216	0.13500479	-0.062746636	-0.20048962	-0.017350529	-0.12689345	0.4268359	0.074368946	-0.034802838	0.029557702	0.34574643	-0.20138295	0.44236611	0.49731164	0.044519126	0.016809196	0.33659727	-0.080319702	0.45938255	0.52214408	-0.080457238	0.11537403	0.7291965	-0.28142333	0.15478007	0.76867028	0.10033599	0.19494047	0.83029812	-0.22278428	0.21904238	0.84956897	0.020160324	0.013507736	0.87565976	-0.083685783	0.27073148	1.317567	-0.23302312	0.18137566	1.3426825	0.046441923	0.15240923	1.350115	-0.1195255	0.34644797	1.0481392	-0.44102914	-0.031479835	1.1526703	0.23313665	0.60029849	1.0418597	-0.43502154	-0.066254081	1.1923608	0.480202
247	0.984	-0.014296413	-0.056239505	-0.075132241	0.62996083	0.095299013	-0.014128415	-0.12193943	-0.0077483753	-0.15258608	0.48732104	0.10041751	0.014555231	-0.12525621	0.028311054	-0.074582974	0.51196808	0.13376518	-0.066147949	-0.19976489	-0.014093506	-0.12574384	0.44497514	0.072515373	-0.038055795	0.031502504	0.34716897	-0.20169253	0.44903566	0.49457657	0.042889593	0.020027643	0.33752185	-0.080511863	0.46517228	0.5191499	-0.082067577	0.11981425	0.72993553	-0.28165518	0.16456327	0.76982088	0.099730381	0.20010809	0.83148146	-0.22479638	0.22785592	0.850303	0.018597276	0.021299946	0.87657615	-0.081653313	0.27809907	1.3190345	-0.23254822	0.18798049	1.3438951	0.045765739	0.15985868	1.3510963	-0.1198836	0.3569193	1.051664	-0.44155603	-0.028032584	1.1570491	0.23213633	0.61091421	1.0484288	-0.4325007	-0.064202355	1.2007214	0.47838178
248	0.988	-0.013994574	-0.056196073	-0.075122746	0.64820294	0.094228638	-0.019688174	-0.12095716	-0.0056052191	-0.15219284	0.50523567	0.098381755	0.010782813	-0.12323042	0.030317835	-0.073798537	0.52893086	0.13272842	-0.069457301	-0.19890275	-0.010805101	-0.12451637	0.46249436	0.070980121	-0.041217925	0.033653813	0.3485596	-0.20190222	0.4555948	0.49169962	0.041276281	0.023348533	0.3385487	-0.080624309	0.47102262	0.51588846	-0.083688874	0.12430808	0.7307191	-0.28201529	0.17439538	0.7710435	0.099059585	0.20527244	0.83278611	-0.22684504	0.23668616	0.85112845	0.01693993	0.028876446	0.87756912	-0.080160529	0.28540677	1.3205061	-0.23205016	0.19461129	1.3450648	0.045145938	0.16729429	1.352082	-0.12016988	0.36726109	1.0551734	-0.44199025	-0.024543833	1.1613871	0.23101502	0.6213492	1.0548241	-0.42988745	-0.061933365	1.2088324	0.47643592
249	0.992	-0.013667092	-0.056146132	-0.075055074	0.6657508	0.09325213	-0.02515671	-0.11992387	-0.0033924022	-0.15177048	0.52262304	0.096506935	0.0070567976	-0.12117179	0.0323111	-0.07302625	0.54537801	0.13188434	-0.072673931	-0.19784716	-0.0074688647	-0.12322532	0.47950752	0.069713624	-0.044431223	0.036021393	0.34991861	-0.20204368	0.462057	0.48871472	0.03966828	0.026761443	0.33966747	-0.080685888	0.47696457	0.51240129	-0.085320978	0.12871243	0.73152734	-0.28234557	0.18426295	0.77234041	0.098315522	0.21046015	0.83418564	-0.22892038	0.24553055	0.8520718	0.015175906	0.036283385	0.87857178	-0.079128884	0.2926566	1.3219849	-0.23151512	0.20127297	1.3461755	0.044597654	0.17468417	1.3530695	-0.12035649	0.37748288	1.0586322	-0.4423051	-0.021000514	1.165685	0.22979053	0.63152634	1.0609806	-0.42731429	-0.059485012	1.2166838	0.47436484
250	0.996	-0.013324568	-0.056098272	-0.074933208	0.68254907	0.09233862	-0.03048738	-0.11886825	-0.0011359838	-0.15128729	0.53937688	0.094804629	0.0034756317	-0.11899013	0.034300489	-0.072349753	0.56125755	0.13120746	-0.07579815	-0.19663831	-0.0040280995	-0.12187523	0.49601634	0.068678266	-0.047744284	0.038620317	0.35124712	-0.20213955	0.46843383	0.48564396	0.038059815	0.030257746	0.34085693	-0.080730032	0.48298143	0.50873479	-0.086960808	0.13303625	0.73235946	-0.28262409	0.19415058	0.7737069	0.097490766	0.21568853	0.83564755	-0.23101109	0.25440271	0.85315488	0.01330864	0.043664009	0.87952768	-0.078327968	0.29984851	1.3234713	-0.23093596	0.20795914	1.3472185	0.04412877	0.18201858	1.354057	-0.12043967	0.38758393	1.0619928	-0.44248323	-0.01739415	1.1699398	0.22846378	0.64137981	1.066824	-0.42492742	-0.05691623	1.2242577	0.47216389
251	1	-0.01297676	-0.056051117	-0.074779335	0.69860233	0.091424006	-0.0356572	-0.11777307	0.0011407906	-0.15075693	0.55540057	0.093286867	5.6525066e-05	-0.11656219	0.036300977	-0.071785581	0.57652312	0.13066678	-0.078832679	-0.19532548	-0.00045967972	-0.1204773	0.51192223	0.067849182	-0.051111922	0.041440206	0.3525448	-0.202205	0.47472716	0.48249917	0.036439014	0.033857392	0.34209521	-0.080781434	0.48905585	0.5049374	-0.088608926	0.1373673	0.73322034	-0.28288366	0.20404862	0.77512885	0.096573985	0.22097437	0.83713607	-0.23310046	0.26331172	0.85438278	0.011352936	0.051143278	0.88041512	-0.077553491	0.3069799	1.3249624	-0.23031271	0.21465069	1.3482003	0.043737442	0.18933154	1.3550578	-0.12046599	0.39756018	1.0652325	-0.44252016	-0.013730856	1.17414	0.22702957	0.65090725	1.072314	-0.4227844	-0.054264134	1.2315309	0.46983508
252	1.004	-0.012612874	-0.05599372	-0.074625124	0.71391966	0.09047246	-0.040643961	-0.1165814	0.003431642	-0.15025926	0.57066308	0.091944205	-0.0032322259	-0.11390185	0.038307558	-0.07128735	0.59114726	0.13023125	-0.081784198	-0.19387419	0.0031943144	-0.11909733	0.52712455	0.067196691	-0.054450653	0.044446796	0.35381993	-0.20225278	0.48094318	0.47929568	0.034798807	0.037617475	0.34336903	-0.080844927	0.49519417	0.50105509	-0.09027309	0.1417707	0.73410727	-0.28315128	0.21396001	0.77658487	0.095553646	0.22633456	0.83861527	-0.23516624	0.27224053	0.85574342	0.0093201395	0.05879371	0.88124023	-0.076698357	0.31404732	1.3264528	-0.22965013	0.22134142	1.3491332	0.04342486	0.19667356	1.356082	-0.12050799	0.407406	1.0683585	-0.44241643	-0.010024437	1.1782681	0.22549771	0.66018974	1.077489	-0.42077765	-0.051533585	1.2384816	0.46739493
253	1.008	-0.012210747	-0.055915237	-0.074495307	0.72849014	0.089489682	-0.045417472	-0.11524807	0.0057377215	-0.14986922	0.5851714	0.09074839	-0.0064218398	-0.11112529	0.040310183	-0.070788835	0.60511416	0.12986925	-0.084659595	-0.19219563	0.0068645439	-0.11781682	0.54156325	0.066680026	-0.057677156	0.047624771	0.35510341	-0.20229984	0.48710442	0.47605882	0.033149084	0.041618276	0.34467047	-0.080903614	0.50141753	0.49713902	-0.091960779	0.14625793	0.73500841	-0.28342555	0.22389452	0.77805388	0.094427502	0.23178981	0.84005302	-0.2371799	0.28115722	0.85721567	0.0072152289	0.06663179	0.88201543	-0.075781153	0.32104854	1.3279372	-0.22895374	0.22804305	1.3500213	0.043197725	0.20404615	1.3570909	-0.12057461	0.4171101	1.0713785	-0.44216268	-0.0062733073	1.1823146	0.22388435	0.66933199	1.0824441	-0.41873177	-0.048730417	1.2451021	0.46487136
254	1.012	-0.011755818	-0.055818446	-0.074391498	0.74229108	0.08847354	-0.049948122	-0.11378772	0.0080558201	-0.14956021	0.59893251	0.089661169	-0.0095299627	-0.10831359	0.042300179	-0.070290085	0.61840918	0.12954585	-0.087466093	-0.19025186	0.010513096	-0.11665284	0.55522874	0.066254501	-0.060766872	0.050982125	0.35643421	-0.20237179	0.49323623	0.4728196	0.031505571	0.045912561	0.34598899	-0.080944077	0.50774255	0.49325036	-0.093673534	0.1508266	0.73591335	-0.28366969	0.23385301	0.77951948	0.093199694	0.23736785	0.84142601	-0.23910897	0.29003427	0.85877582	0.0050431579	0.074633332	0.88274302	-0.074905027	0.32798544	1.3294099	-0.22822473	0.23475925	1.3508605	0.043055907	0.21138298	1.3580178	-0.12056816	0.42665935	1.0742831	-0.44174981	-0.0024567157	1.1862749	0.22219964	0.67838137	1.0872557	-0.41658596	-0.045852237	1.2514088	0.46230001
255	1.016	-0.011241606	-0.055727635	-0.074292841	0.75529961	0.087384293	-0.054212087	-0.11229749	0.010389953	-0.14920714	0.61193079	0.088647442	-0.012564283	-0.10546588	0.044273772	-0.069843037	0.6310199	0.12922069	-0.090213988	-0.18807904	0.014142336	-0.11557121	0.56813991	0.065875962	-0.063761844	0.054500863	0.35782696	-0.20248573	0.49935623	0.46961515	0.02987555	0.050471217	0.34732125	-0.08098371	0.51417233	0.4894526	-0.095410817	0.1554934	0.73682042	-0.28384468	0.24382456	0.7809684	0.091874462	0.24309696	0.84272222	-0.2409267	0.2988616	0.86040157	0.0028190855	0.082763603	0.8834209	-0.074166843	0.33486023	1.3308643	-0.22746525	0.24147565	1.3516485	0.04299112	0.21861261	1.3588473	-0.12036782	0.43604759	1.0770423	-0.44120202	0.0014504759	1.1901422	0.22044947	0.68732347	1.0919434	-0.41439416	-0.042834914	1.2574147	0.45972562
256	1.02	-0.010663595	-0.055684084	-0.074169666	0.76749646	0.086168943	-0.058197146	-0.11093102	0.012759202	-0.14869376	0.6241273	0.087671002	-0.015534969	-0.10253371	0.046237829	-0.069479045	0.64293724	0.12885007	-0.092914677	-0.18572953	0.017765975	-0.11454761	0.58030019	0.065496901	-0.066718468	0.058111468	0.35927194	-0.2026221	0.50548175	0.46648577	0.028261326	0.055212311	0.34867739	-0.081062537	0.52070249	0.48580995	-0.097172881	0.16028935	0.7377327	-0.28396425	0.25379686	0.78238597	0.090460074	0.24899568	0.84393412	-0.2426253	0.30766827	0.86207806	0.00058034878	0.090993034	0.88406416	-0.073619846	0.34167249	1.3322923	-0.22668179	0.24818095	1.352389	0.042997949	0.22573227	1.3596334	-0.11995578	0.44527579	1.0796037	-0.44059002	0.0054669905	1.1939129	0.21863801	0.69612059	1.096477	-0.41219673	-0.039572734	1.2630958	0.45719645
257	1.024	-0.010025536	-0.05571774	-0.074008154	0.77886173	0.084795674	-0.06190418	-0.10975635	0.015172111	-0.14803226	0.63547839	0.086686838	-0.018464818	-0.099464496	0.048191999	-0.069220081	0.65415254	0.12838946	-0.09558096	-0.18323156	0.021387986	-0.11358826	0.59168845	0.065064201	-0.069685215	0.061730804	0.36075785	-0.2027497	0.5116295	0.46345644	0.026665253	0.060088362	0.35005584	-0.081216659	0.52732661	0.48239076	-0.098954892	0.16524278	0.73865696	-0.28409567	0.26376484	0.78375064	0.088970866	0.25507101	0.84504883	-0.24421599	0.31650792	0.8637957	-0.0016270794	0.099308763	0.88470236	-0.073282556	0.34842112	1.3336841	-0.22588239	0.25488186	1.3530861	0.043076093	0.23281037	1.3604311	-0.11944702	0.45434747	1.0819124	-0.43999124	0.0096034827	1.1975828	0.2167706	0.70473503	1.1008196	-0.40998352	-0.036022441	1.2684175	0.45473812
